<svg xmlns="http://www.w3.org/2000/svg" width="1200" height="520" viewBox="0 0 1200 520">
<rect width="100%" height="100%" fill="#ffffff" />
<text x="600.0" y="24" text-anchor="middle" font-size="20" font-weight="700" fill="#222">Fusion Method Comparison</text>
<rect x="92" y="18" width="14" height="14" fill="#5e35b1" rx="2" />
<text x="112" y="30" font-size="13" fill="#333">risk_class_accuracy</text>
<rect x="288" y="18" width="14" height="14" fill="#00897b" rx="2" />
<text x="308" y="30" font-size="13" fill="#333">uncertainty_detection_rate</text>
<rect x="540" y="18" width="14" height="14" fill="#d81b60" rx="2" />
<text x="560" y="30" font-size="13" fill="#333">safe_hold_rate_on_uncertain_risk</text>
<rect x="82" y="62" width="1082" height="382" fill="#fafafa" stroke="#bdbdbd" />
<line x1="82" y1="444.0" x2="1164" y2="444.0" stroke="#e0e0e0" stroke-width="1" />
<text x="70" y="448.0" text-anchor="end" font-size="12" fill="#555">0</text>
<line x1="82" y1="367.6" x2="1164" y2="367.6" stroke="#e0e0e0" stroke-width="1" />
<text x="70" y="371.6" text-anchor="end" font-size="12" fill="#555">0.2</text>
<line x1="82" y1="291.2" x2="1164" y2="291.2" stroke="#e0e0e0" stroke-width="1" />
<text x="70" y="295.2" text-anchor="end" font-size="12" fill="#555">0.4</text>
<line x1="82" y1="214.8" x2="1164" y2="214.8" stroke="#e0e0e0" stroke-width="1" />
<text x="70" y="218.8" text-anchor="end" font-size="12" fill="#555">0.6</text>
<line x1="82" y1="138.4" x2="1164" y2="138.4" stroke="#e0e0e0" stroke-width="1" />
<text x="70" y="142.4" text-anchor="end" font-size="12" fill="#555">0.8</text>
<line x1="82" y1="62.0" x2="1164" y2="62.0" stroke="#e0e0e0" stroke-width="1" />
<text x="70" y="66.0" text-anchor="end" font-size="12" fill="#555">1</text>
<rect x="127.1" y="70.8" width="72.1" height="373.2" fill="#5e35b1" rx="3" /><text x="163.2" y="64.8" text-anchor="middle" font-size="12" fill="#333">0.977</text><rect x="217.2" y="444.0" width="72.1" height="0.0" fill="#00897b" rx="3" /><text x="253.3" y="438.0" text-anchor="middle" font-size="12" fill="#333">0.000</text><rect x="307.4" y="415.0" width="72.1" height="29.0" fill="#d81b60" rx="3" /><text x="343.5" y="409.0" text-anchor="middle" font-size="12" fill="#333">0.076</text><text x="262.3" y="482" text-anchor="middle" font-size="12" fill="#333">rule_fusion</text><rect x="487.8" y="75.0" width="72.1" height="369.0" fill="#5e35b1" rx="3" /><text x="523.8" y="69.0" text-anchor="middle" font-size="12" fill="#333">0.966</text><rect x="577.9" y="62.0" width="72.1" height="382.0" fill="#00897b" rx="3" /><text x="614.0" y="56.0" text-anchor="middle" font-size="12" fill="#333">1.000</text><rect x="668.1" y="62.0" width="72.1" height="382.0" fill="#d81b60" rx="3" /><text x="704.2" y="56.0" text-anchor="middle" font-size="12" fill="#333">1.000</text><text x="623.0" y="482" text-anchor="middle" font-size="12" fill="#333">fixed_weighted_fusion</text><rect x="848.4" y="86.8" width="72.1" height="357.2" fill="#5e35b1" rx="3" /><text x="884.5" y="80.8" text-anchor="middle" font-size="12" fill="#333">0.935</text><rect x="938.6" y="62.0" width="72.1" height="382.0" fill="#00897b" rx="3" /><text x="974.7" y="56.0" text-anchor="middle" font-size="12" fill="#333">1.000</text><rect x="1028.8" y="62.0" width="72.1" height="382.0" fill="#d81b60" rx="3" /><text x="1064.8" y="56.0" text-anchor="middle" font-size="12" fill="#333">1.000</text><text x="983.7" y="482" text-anchor="middle" font-size="12" fill="#333">uncertainty_weighted_fusion</text>
<text x="22" y="260.0" text-anchor="middle" font-size="13" fill="#555" transform="rotate(-90 22 260.0)">score</text>
</svg>
